<svg xmlns="http://www.w3.org/2000/svg" width="262.442" height="70.28" viewBox="0 0 262.442 70.28"><g fill="#fff"><path d="M71.326 50.125c-6.108 0-10.371-3.56-10.635-8.086h6.196c.22 1.846 1.934 3.252 4.395 3.252 2.417 0 3.735-1.099 3.735-2.505 0-4.351-13.755-1.582-13.755-10.503 0-4.043 3.604-7.295 9.624-7.295 5.889 0 9.448 3.208 9.8 8.042h-5.889c-.176-1.89-1.67-3.164-4.087-3.164-2.285 0-3.472.923-3.472 2.329 0 4.438 13.491 1.67 13.667 10.591.001 4.175-3.647 7.339-9.579 7.339zM81.041 25.384h6.24l4.307 18.545 4.658-18.545h6.504l4.57 18.501 4.307-18.501h5.889l-7.119 24.346h-6.636l-4.438-17.007-4.438 17.007h-6.68l-7.164-24.346zM128.198 24.988c3.911 0 6.592 1.846 8.042 3.867v-3.472h6.196v24.346h-6.196v-3.56c-1.45 2.109-4.219 3.955-8.086 3.955-6.152 0-11.074-5.054-11.074-12.656s4.922-12.48 11.118-12.48zm1.582 5.406c-3.296 0-6.416 2.461-6.416 7.075s3.12 7.251 6.416 7.251c3.384 0 6.46-2.549 6.46-7.163s-3.076-7.163-6.46-7.163zM160.457 24.988c6.24 0 11.118 4.878 11.118 12.48s-4.878 12.656-11.118 12.656c-3.823 0-6.548-1.89-8.042-3.867v15.073h-6.152v-35.946h6.152v3.516c1.45-2.066 4.263-3.912 8.042-3.912zm-1.626 5.406c-3.296 0-6.416 2.549-6.416 7.163s3.12 7.163 6.416 7.163c3.34 0 6.46-2.637 6.46-7.251s-3.12-7.075-6.46-7.075zM174.523 30.438h-2.769v-5.054h2.769v-1.23c0-5.977 3.384-8.745 10.239-8.569v5.186c-2.988-.088-3.999.879-3.999 3.604v1.011h4.263v5.054h-4.263v19.292h-6.24v-19.294zM197.64 50.125c-7.031 0-12.349-4.922-12.349-12.568 0-7.69 5.493-12.568 12.524-12.568s12.524 4.878 12.524 12.568c.001 7.646-5.624 12.568-12.699 12.568zm0-5.361c3.252 0 6.372-2.373 6.372-7.207 0-4.878-3.032-7.207-6.284-7.207s-6.196 2.329-6.196 7.207c-.001 4.834 2.812 7.207 6.108 7.207zM212.672 17.21h6.152v32.52h-6.152v-32.52zM222.033 18.88c0-2.021 1.582-3.604 3.779-3.604 2.153 0 3.779 1.582 3.779 3.604s-1.626 3.604-3.779 3.604c-2.197-.001-3.779-1.583-3.779-3.604zm.659 6.504h6.152v24.346h-6.152v-24.346zM243.523 50.125c-7.031 0-12.349-4.922-12.349-12.568 0-7.69 5.493-12.568 12.524-12.568s12.524 4.878 12.524 12.568c.002 7.646-5.623 12.568-12.699 12.568zm0-5.361c3.252 0 6.372-2.373 6.372-7.207 0-4.878-3.032-7.207-6.284-7.207s-6.196 2.329-6.196 7.207c0 4.834 2.813 7.207 6.108 7.207z"/></g><path fill="#0B3824" d="M28.088 57.12c-5.844 0-11.338-2.274-15.471-6.407-8.531-8.531-8.531-22.412 0-30.942 4.132-4.132 9.627-6.409 15.471-6.409 5.845 0 11.339 2.277 15.472 6.409 8.53 8.53 8.53 22.411 0 30.942-4.132 4.133-9.627 6.407-15.472 6.407z"/><circle fill="#FF90E3" cx="28.088" cy="35.242" r="19.132"/><path fill="#35DFBE" d="M29.815 24.65l.001 35.922 10.842-10.843-.001-11.061c0-12.375-10.842-14.018-10.842-14.018z"/><path fill="#FFC2F2" d="M43.154 23.433c-.483-.619-.995-1.224-1.564-1.794-7.471-7.471-19.585-7.471-27.057 0-7.223 7.223-7.441 18.773-.698 26.286l29.319-24.492z"/><path fill="#35DFBE" d="M26.564 45.63v-35.921l-10.843 10.843v11.06c0 12.375 10.843 14.018 10.843 14.018z"/><path fill="#0B3824" d="M43.405 50.867v-21.933l-14.093-7.688v-18.17l-16.338 16.338v21.934l14.093 7.687v18.169z"/><path fill="#35DFBE" d="M26.563 9.709l.001 35.921-10.843-5.913v-19.165z"/><path fill="#47EACB" d="M15.721 20.552l5.422 4.098 5.42-14.941z"/><path fill="#28CEAE" d="M15.721 39.717l5.421-4.576 5.422 10.489z"/><path fill="#59EFD2" d="M21.143 24.65l-.001 10.491-5.421 4.576v-19.165z"/><path fill="#35DFBE" d="M29.816 60.572l-.001-35.922 10.842 5.914.001 19.165z"/><path fill="#47EACB" d="M40.658 49.729l-5.422-4.099-5.42 14.942z"/><path fill="#28CEAE" d="M40.657 30.564l-5.421 4.577-5.421-10.491z"/><path fill="#59EFD2" d="M35.236 45.63v-10.489l5.421-4.577.001 19.165z"/></svg>